HIERARCHY
ROOT Pelvis
{
	OFFSET 0.000000 0.000000 0.000000
	CHANNELS 6 Xposition Yposition Zposition Xrotation Yrotation Zrotation
	JOINT LeftUpLeg_virtual
	{
		OFFSET 0.000000 0.000000 0.000000
		CHANNELS 3 Xrotation Yrotation Zrotation
		JOINT LeftUpLeg
		{
			OFFSET 18.735201 -5.666702 -4.541200
			CHANNELS 3 Xrotation Yrotation Zrotation
			JOINT LeftLeg
			{
				OFFSET -0.021200 -31.938179 0.493100
				CHANNELS 3 Xrotation Yrotation Zrotation
				JOINT LeftFoot
				{
					OFFSET 0.021200 -31.938179 -4.336299
					CHANNELS 3 Xrotation Yrotation Zrotation
					JOINT LeftToeBase
					{
						OFFSET 0.943001 -26.722000 15.023500
						CHANNELS 3 Xrotation Yrotation Zrotation
						End Site
						{
							OFFSET 0 0 0
						}
					}
				}
			}
		}
	}
	JOINT RightUpLeg_virtual
	{
		OFFSET 0.000000 0.000000 0.000000
		CHANNELS 3 Xrotation Yrotation Zrotation
		JOINT RightUpLeg
		{
			OFFSET -18.735201 -5.666702 -4.541200
			CHANNELS 3 Xrotation Yrotation Zrotation
			JOINT RightLeg
			{
				OFFSET 0.018946 -31.938133 0.493100
				CHANNELS 3 Xrotation Yrotation Zrotation
				JOINT RightFoot
				{
					OFFSET -0.018946 -31.938126 -4.336299
					CHANNELS 3 Xrotation Yrotation Zrotation
					JOINT RightToeBase
					{
						OFFSET -0.943001 -26.722004 15.023500
						CHANNELS 3 Xrotation Yrotation Zrotation
						End Site
						{
							OFFSET 0 0 0
						}
					}
				}
			}
		}
	}
	JOINT Hips_virtual
	{
		OFFSET 0.000000 0.000000 0.000000
		CHANNELS 3 Xrotation Yrotation Zrotation
		JOINT Hips
		{
			OFFSET -0.000000 -0.000000 -0.000000
			CHANNELS 3 Xrotation Yrotation Zrotation
			JOINT Spine
			{
				OFFSET 0.000000 10.199997 -0.299500
				CHANNELS 3 Xrotation Yrotation Zrotation
				JOINT Spine1
				{
					OFFSET 0.000000 11.900002 -1.516600
					CHANNELS 3 Xrotation Yrotation Zrotation
					JOINT Spine2
					{
						OFFSET 0.000000 13.600006 -2.842500
						CHANNELS 3 Xrotation Yrotation Zrotation
						JOINT Neck_virtual
						{
							OFFSET 0.000000 0.000000 0.000000
							CHANNELS 3 Xrotation Yrotation Zrotation
							JOINT Neck
							{
								OFFSET 0.000000 9.624100 -2.890100
								CHANNELS 3 Xrotation Yrotation Zrotation
								JOINT Head
								{
									OFFSET 0.000000 14.068802 -1.351900
									CHANNELS 3 Xrotation Yrotation Zrotation
									End Site
									{
										OFFSET 0 0 0
									}
								}
							}
						}
						JOINT LeftShoulder_virtual
						{
							OFFSET 0.000000 0.000000 0.000000
							CHANNELS 3 Xrotation Yrotation Zrotation
							JOINT LeftShoulder
							{
								OFFSET 15.263000 10.923401 -0.547700
								CHANNELS 3 Xrotation Yrotation Zrotation
								JOINT LeftArm
								{
									OFFSET 25.438599 -2.830597 -13.032500
									CHANNELS 3 Xrotation Yrotation Zrotation
									JOINT LeftForeArm
									{
										OFFSET 29.960503 0.000000 0.000000
										CHANNELS 3 Xrotation Yrotation Zrotation
										JOINT LeftHand
										{
											OFFSET 27.849251 0.000000 0.000000
											CHANNELS 3 Xrotation Yrotation Zrotation
											End Site
											{
												OFFSET 0 0 0
											}
										}
									}
								}
							}
						}
						JOINT RightShoulder_virtual
						{
							OFFSET 0.000000 0.000000 0.000000
							CHANNELS 3 Xrotation Yrotation Zrotation
							JOINT RightShoulder
							{
								OFFSET -15.263000 10.923401 -0.547700
								CHANNELS 3 Xrotation Yrotation Zrotation
								JOINT RightArm
								{
									OFFSET -25.438599 -2.830597 -13.032500
									CHANNELS 3 Xrotation Yrotation Zrotation
									JOINT RightForeArm
									{
										OFFSET -29.960503 0.000000 0.000000
										CHANNELS 3 Xrotation Yrotation Zrotation
										JOINT RightHand
										{
											OFFSET -27.849251 0.000000 0.000000
											CHANNELS 3 Xrotation Yrotation Zrotation
											End Site
											{
												OFFSET 0 0 0
											}
										}
									}
								}
							}
						}
					}
				}
			}
		}
	}
}
MOTION
Frames: 8
Frame Time: 0.03333333
2.526281 75.584137 1.175421 0.000000 0.000000 0.000000 18.045459 5.320940 -5.706808 -19.415286 16.183413 11.867867 43.970176 1.045012 4.880336 -9.116420 -1.645324 2.434935 0.000000 0.000000 0.000000 -7.735351 16.120838 5.367502 -41.473906 0.174117 -10.290130 53.097115 -3.369093 -4.746460 -2.249278 -3.474792 1.544474 0.000000 0.000000 0.000000 1.564398 -1.450569 0.213285 8.903566 11.003647 -3.803975 6.206518 -3.510535 3.124597 2.345324 -2.000423 1.260190 0.000000 0.000000 0.000000 1.138488 -1.262880 1.377873 -1.315825 -0.307325 0.539916 0.000000 0.000000 0.000000 3.702691 -0.153122 1.280936 1.273390 -3.460268 -1.769519 -30.094510 -19.905517 -63.248446 -19.182445 -75.216509 -21.415985 0.000000 0.000000 0.000000 3.004228 -2.931057 2.005674 1.525281 -3.257100 12.058829 -17.962598 20.265422 56.183312 -19.830520 84.512164 22.040189 0.000000 0.000000 0.000000 
1.615873 77.839668 0.908569 0.000000 0.000000 0.000000 18.634527 2.928494 -5.230868 -17.480904 15.574501 11.387965 43.526791 1.292432 6.076304 -9.119528 -2.013353 4.320808 0.000000 0.000000 0.000000 -8.648752 17.704065 6.263748 -42.189300 0.425980 -9.367003 53.698964 -3.737005 -5.148615 -1.260729 -3.587686 0.357930 0.000000 0.000000 0.000000 0.904462 -1.059556 0.017696 10.990381 14.416275 -2.487049 6.296854 -3.917353 3.085252 2.425306 -1.923523 1.639936 0.000000 0.000000 0.000000 1.291287 -1.560708 1.199286 -1.148474 -0.328569 0.555194 0.000000 0.000000 0.000000 3.231332 -0.212856 1.331079 1.902557 -2.167785 -1.971428 -31.626918 -19.492451 -64.162681 -19.750090 -76.010675 -22.349554 0.000000 0.000000 0.000000 2.526645 -3.259813 2.129447 1.601488 -4.303036 12.938703 -21.206783 21.167706 56.698794 -78.352556 86.936629 80.065076 0.000000 0.000000 0.000000 
0.647850 80.657677 1.109842 0.000000 0.000000 0.000000 17.932207 0.538822 -5.057548 -16.633409 14.683829 10.391523 41.963589 1.692769 6.473611 -9.532986 -1.762337 5.296415 0.000000 0.000000 0.000000 -8.859865 17.229156 6.390971 -42.123310 0.328904 -9.052286 52.400207 -4.546501 -5.237281 -1.295623 -4.434583 -0.783710 0.000000 0.000000 0.000000 1.826461 -0.459307 0.458489 8.243757 16.032858 -5.134330 7.738232 -4.055644 2.461371 2.175072 -2.080159 1.853524 0.000000 0.000000 0.000000 1.733153 -1.811415 0.797028 -1.042986 -0.344934 0.321948 0.000000 0.000000 0.000000 3.025362 -0.330898 1.261937 1.672012 -3.716594 -2.640497 -35.932164 -21.198327 -63.338680 -22.313572 -77.410017 -23.826329 0.000000 0.000000 0.000000 2.663456 -3.401548 1.860704 2.134289 -5.681808 11.759493 -21.353903 21.331606 55.389139 -98.041061 86.904274 98.786494 0.000000 0.000000 0.000000 
0.423858 82.855743 0.911345 0.000000 0.000000 0.000000 17.682636 2.064735 -4.987450 -16.575986 14.912174 10.633728 45.663318 1.733581 6.187453 -6.241941 -1.673366 5.004682 0.000000 0.000000 0.000000 -8.671267 17.226335 6.205489 -41.778570 0.370781 -9.104758 53.626725 -4.810371 -5.258561 -0.010918 -4.635087 -1.192717 0.000000 0.000000 0.000000 1.197128 0.197923 -0.046789 11.044663 14.301507 -5.082418 6.880400 -4.098309 2.798514 2.317743 -1.649349 1.540696 0.000000 0.000000 0.000000 1.905158 -1.874476 0.379976 -0.938605 -0.411860 0.092007 0.000000 0.000000 0.000000 3.511171 -0.376379 0.973450 1.483242 -2.792123 -2.919144 -36.869119 -21.675559 -64.731868 -28.343345 -79.153450 -30.216846 0.000000 0.000000 0.000000 2.602548 -3.343411 1.597690 1.771805 -5.671997 11.363189 -22.764621 24.161627 54.096048 -134.949375 86.056627 135.374390 0.000000 0.000000 0.000000 
0.902402 85.114716 0.802805 0.000000 0.000000 0.000000 16.569440 1.659149 -5.024748 -17.303497 14.524491 10.281508 50.828557 2.478337 6.173648 -1.605964 -1.053524 5.703417 0.000000 0.000000 0.000000 -8.520542 16.241005 4.949481 -41.676503 0.513142 -10.167466 52.056963 -4.824560 -5.116662 -1.020032 -4.807472 -1.057074 0.000000 0.000000 0.000000 2.842100 1.447653 -0.009070 10.190483 12.876150 -3.527456 8.660008 -3.780326 2.342976 2.321217 -1.706383 1.773031 0.000000 0.000000 0.000000 2.728841 -1.912466 0.172931 -0.794245 -0.240170 0.029476 0.000000 0.000000 0.000000 4.081257 -0.702655 0.972378 1.584773 -2.838259 -3.243168 -38.388231 -23.709508 -64.912533 -34.380006 -80.678440 -36.400967 0.000000 0.000000 0.000000 2.334870 -3.489171 1.522792 1.822791 -5.387722 9.802425 -23.109848 22.322197 51.329514 -132.117360 85.417683 131.537586 0.000000 0.000000 0.000000 
1.688201 86.863312 1.571495 0.000000 0.000000 0.000000 15.315277 -0.977943 -5.256684 -19.243797 13.796187 9.824113 58.346283 1.390997 5.698554 4.086888 -2.130961 4.145131 0.000000 0.000000 0.000000 -8.790268 16.654376 4.790857 -41.760408 0.759299 -10.133066 52.270031 -4.667576 -4.951737 -0.302008 -4.739639 -0.822563 0.000000 0.000000 0.000000 -0.058109 -1.288204 0.582647 6.522845 14.294595 -1.171238 7.749961 -4.022967 2.165101 2.963947 -1.254668 1.747163 0.000000 0.000000 0.000000 1.913067 -1.695583 -0.123388 -0.701749 -0.279405 -0.108773 0.000000 0.000000 0.000000 3.770316 -0.884893 0.685973 1.705537 -4.023514 -3.354287 -38.795293 -24.133340 -63.356316 -30.629731 -81.496820 -32.688824 0.000000 0.000000 0.000000 1.878445 -3.456662 1.477766 1.307239 -5.586767 9.170702 -26.805311 23.806995 53.594507 -133.754802 84.842998 133.708029 0.000000 0.000000 0.000000 
0.744939 88.245224 1.218315 0.000000 0.000000 0.000000 15.294248 -0.634177 -4.847687 -20.542982 13.911833 10.940324 65.916072 2.919618 5.490621 9.738403 -0.691289 5.080706 0.000000 0.000000 0.000000 -9.352262 14.453435 4.606314 -42.618461 0.325605 -10.327833 50.791551 -4.856997 -4.639777 -1.309382 -5.183133 -0.525469 0.000000 0.000000 0.000000 0.165023 0.281967 0.263634 6.321708 14.128475 -2.423539 7.778797 -3.221913 1.929605 3.510412 -1.729953 1.608392 0.000000 0.000000 0.000000 2.359756 -1.728231 -0.355708 -0.544446 -0.318674 -0.271093 0.000000 0.000000 0.000000 3.357195 -1.069840 0.691917 1.186499 -5.738094 -3.230263 -40.291689 -25.115202 -63.434474 -40.120473 -82.456366 -42.252793 0.000000 0.000000 0.000000 1.838167 -3.360449 1.331638 1.256010 -5.777939 8.123257 -30.304863 23.693511 52.201162 -131.544157 84.339743 130.422667 0.000000 0.000000 0.000000 
1.494995 89.686890 1.158419 0.000000 0.000000 0.000000 13.691583 -0.357513 -4.594543 -23.455221 13.651706 11.779940 71.090166 3.222274 4.804312 13.485681 -0.161403 4.327579 0.000000 0.000000 0.000000 -9.341925 13.993457 4.471566 -42.465892 0.218740 -10.317102 51.086188 -5.110695 -4.357379 -0.968379 -5.545591 -0.344089 0.000000 0.000000 0.000000 -0.317782 -0.928152 -0.044512 6.724054 17.651063 -3.376062 7.865148 -2.993159 2.529366 2.836715 -1.586061 1.613960 0.000000 0.000000 0.000000 2.300022 -1.660690 -0.457529 -0.479463 -0.302282 -0.223300 0.000000 0.000000 0.000000 3.444847 -1.391765 0.699211 1.021690 -5.641807 -3.025306 -42.358829 -25.289306 -63.438852 -55.359896 -83.851746 -56.831347 0.000000 0.000000 0.000000 2.388685 -3.125062 1.218315 1.111718 -5.269459 8.032771 -32.820589 23.521261 52.126808 -143.777094 82.072045 142.275764 0.000000 0.000000 0.000000 
